<svg xmlns="http://www.w3.org/2000/svg" viewBox="0 0 133 90"><defs><style>.cls-1{fill:#fff;}</style></defs><title>LogoReinoSVG</title><g id="Layer_2" data-name="Layer 2"><g id="Layer_3" data-name="Layer 3"><path class="cls-1" d="M119.88,34.47,66.5,72.2,13.12,34.47A8,8,0,0,0,3.88,47.53l58,41,.06,0a7.72,7.72,0,0,0,1,.59l.19.08a8.51,8.51,0,0,0,.83.34l.38.11a5.62,5.62,0,0,0,.71.16l.38.07a8.42,8.42,0,0,0,1,.08h.11a8.43,8.43,0,0,0,1-.08l.38-.07a5.62,5.62,0,0,0,.71-.16l.38-.11a8.51,8.51,0,0,0,.83-.34l.19-.08a7.72,7.72,0,0,0,1-.59l.06,0,58-41a8,8,0,1,0-9.24-13.06Z"/><path class="cls-1" d="M3.34,14.55l29.34,21,0,0a7.31,7.31,0,0,0,1,.58l.23.11c.25.11.5.22.76.31l.38.11a5.58,5.58,0,0,0,.68.16l.38.07a7.93,7.93,0,0,0,1,.08h.11a8.26,8.26,0,0,0,1-.08l.37-.07a5.17,5.17,0,0,0,.68-.16l.38-.11c.26-.09.51-.2.76-.31l.24-.11a8,8,0,0,0,1-.58l0,0L66.5,17.77,91.35,35.55l0,0a8,8,0,0,0,1,.58l.24.11c.25.11.5.22.75.31l.39.11a5.17,5.17,0,0,0,.68.16l.37.07a8.26,8.26,0,0,0,1,.08h.11a7.93,7.93,0,0,0,1-.08l.38-.07a5.58,5.58,0,0,0,.68-.16l.38-.11c.26-.09.51-.2.76-.31l.23-.11a7.31,7.31,0,0,0,1-.58l0,0,29.34-21a8.11,8.11,0,0,0,1.92-11.14,7.7,7.7,0,0,0-10.89-2L95.84,19.23,71,1.45l-.13-.09-.41-.26L70.17.94,69.79.75,69.44.59,69.12.47,68.7.33,68.41.25,68,.15l-.3,0c-.15,0-.29,0-.44-.06l-.34,0h-.78l-.34,0c-.15,0-.29,0-.44.06l-.3,0-.44.1L64.3.33l-.42.14-.32.12-.35.16-.38.19-.28.16-.41.26L62,1.45,37.16,19.23,12.31,1.45a7.7,7.7,0,0,0-10.89,2A8.11,8.11,0,0,0,3.34,14.55Z"/></g></g></svg>